<?xml version="1.0" encoding="UTF-8"?>
<svg id="katman_1" data-name="katman 1" xmlns="http://www.w3.org/2000/svg" xmlns:xlink="http://www.w3.org/1999/xlink" viewBox="0 0 397 75">
  <defs>
    <filter id="drop-shadow-4" x="9" y="-1" width="385" height="83" filterUnits="userSpaceOnUse">
      <feOffset dx="3" dy="3"/>
      <feGaussianBlur result="blur" stdDeviation="4"/>
      <feFlood flood-color="#000" flood-opacity=".15"/>
      <feComposite in2="blur" operator="in"/>
      <feComposite in="SourceGraphic"/>
    </filter>
  </defs>
  <g style="filter: url(#drop-shadow-4);">
    <g>
      <path d="M53.46,65.45h-8.65V22.25h17.29c1.59,0,3.11.21,4.58.62,1.47.41,2.84.99,4.11,1.75,1.28.75,2.44,1.66,3.49,2.71s1.96,2.22,2.71,3.51c.75,1.29,1.34,2.66,1.75,4.13.41,1.47.62,2.99.62,4.58,0,1.49-.19,2.93-.56,4.34-.37,1.41-.9,2.74-1.6,4.01-.69,1.27-1.54,2.43-2.55,3.49-1,1.06-2.13,1.99-3.37,2.77l4.79,11.3h-9.19l-3.77-8.71-9.67.06v8.65ZM53.46,30.89v17.29h8.65c1.18,0,2.3-.23,3.34-.68,1.04-.45,1.96-1.07,2.74-1.85.78-.78,1.4-1.7,1.85-2.76.45-1.05.68-2.17.68-3.36s-.23-2.3-.68-3.36c-.45-1.05-1.07-1.97-1.85-2.76-.78-.78-1.7-1.4-2.74-1.85-1.04-.45-2.16-.68-3.34-.68h-8.65Z" style="fill: #373643;"/>
      <path d="M119.11,48.19c0,2.39-.45,4.63-1.36,6.73-.9,2.1-2.14,3.93-3.71,5.48-1.57,1.56-3.4,2.79-5.5,3.69-2.1.9-4.34,1.36-6.73,1.36s-4.63-.45-6.73-1.36c-2.1-.9-3.93-2.13-5.48-3.69-1.56-1.56-2.79-3.38-3.69-5.48-.9-2.1-1.36-4.34-1.36-6.73v-25.94h8.62v25.94c0,1.19.23,2.3.68,3.34.45,1.04,1.07,1.96,1.85,2.74.78.78,1.7,1.4,2.76,1.85,1.05.45,2.17.68,3.36.68s2.3-.23,3.36-.68c1.05-.45,1.97-1.07,2.76-1.85s1.4-1.7,1.85-2.74c.45-1.04.68-2.16.68-3.34v-25.94h8.65v25.94Z" style="fill: #373643;"/>
      <path d="M123.14,22.25v8.65h12.99v33.35c2.86-.12,5.73-.24,8.62-.35V30.89h12.95v-8.65h-34.56Z" style="fill: #373643;"/>
      <path d="M170.11,14.4c-.2-.47-.48-.88-.83-1.23-.35-.35-.76-.63-1.22-.84-.46-.21-.96-.32-1.48-.32s-1.02.1-1.49.32c-.47.21-.89.49-1.24.84s-.63.76-.84,1.23c-.21.47-.31.97-.31,1.49s.1,1.05.31,1.52c.21.47.49.88.84,1.23.35.35.76.63,1.24.83.47.2.97.3,1.49.3s1.01-.1,1.48-.3c.46-.2.87-.48,1.22-.83.35-.35.63-.76.83-1.23.2-.47.3-.98.3-1.52s-.1-1.02-.3-1.49ZM162.28,22.25v41.09c2.87-.08,5.75-.15,8.65-.2V22.25h-8.65Z" style="fill: #373643;"/>
      <path d="M204.85,22.25v28.47l-16.66-28.47h-9.25v40.74c2.87-.04,5.75-.08,8.65-.11v-25.87l15.11,25.79c3.62,0,7.22.02,10.8.04V22.25h-8.65Z" style="fill: #373643;"/>
      <path d="M244.06,21.94v17.29h-17.26v-17.29h-8.65v40.94c2.9.03,5.78.06,8.65.11v-15.11h17.26v15.48c2.9.08,5.78.16,8.65.26V21.94h-8.65Z" style="fill: #373643;"/>
      <path d="M290.33,30.59v-8.65h-29.61v41.95c9.1.34,18.06.76,26.9,1.25h2.71v-8.65h-20.97v-8.62h14.19v-8.65h-14.19v-8.65h20.97Z" style="fill: #373643;"/>
      <path d="M305.04,65.14h-8.65V21.94h17.29c1.59,0,3.11.21,4.58.62,1.47.41,2.84.99,4.11,1.75,1.28.75,2.44,1.66,3.49,2.71,1.05,1.05,1.96,2.22,2.71,3.51.75,1.29,1.34,2.66,1.75,4.13.41,1.47.62,2.99.62,4.58,0,1.49-.19,2.93-.56,4.34-.37,1.41-.9,2.74-1.6,4.01-.69,1.27-1.54,2.43-2.55,3.49-1,1.06-2.13,1.99-3.37,2.77l4.79,11.3h-9.19l-3.77-8.71-9.67.06v8.65ZM305.04,30.59v17.29h8.65c1.19,0,2.3-.23,3.34-.68,1.04-.45,1.96-1.07,2.74-1.85.78-.78,1.4-1.7,1.85-2.76.45-1.05.68-2.17.68-3.36s-.23-2.3-.68-3.36c-.45-1.05-1.07-1.97-1.85-2.76-.78-.78-1.7-1.4-2.74-1.85-1.04-.45-2.16-.68-3.34-.68h-8.65Z" style="fill: #373643;"/>
      <path d="M378.94,43.72c0,2.05-.27,4.02-.8,5.92-.53,1.9-1.28,3.68-2.24,5.33-.96,1.66-2.13,3.17-3.49,4.53-1.37,1.37-2.87,2.54-4.52,3.51-1.65.97-3.42,1.73-5.33,2.26-1.91.53-3.89.8-5.94.8s-4.02-.27-5.92-.8c-1.9-.53-3.68-1.29-5.33-2.26-1.66-.97-3.17-2.14-4.53-3.51-1.37-1.37-2.54-2.88-3.51-4.53-.97-1.66-1.73-3.43-2.26-5.33-.53-1.9-.8-3.87-.8-5.92s.27-4.03.8-5.94c.53-1.91,1.29-3.69,2.26-5.33.97-1.65,2.14-3.15,3.51-4.52,1.37-1.37,2.88-2.53,4.53-3.49,1.66-.96,3.43-1.71,5.33-2.24,1.9-.53,3.87-.8,5.92-.8s4.03.27,5.94.8c1.91.53,3.69,1.28,5.33,2.24,1.65.96,3.15,2.13,4.52,3.49,1.37,1.37,2.53,2.87,3.49,4.52.96,1.65,1.71,3.42,2.24,5.33.53,1.91.8,3.89.8,5.94ZM370.35,43.72c0-1.89-.36-3.67-1.08-5.35-.72-1.68-1.7-3.13-2.94-4.37-1.24-1.24-2.69-2.21-4.37-2.94-1.68-.72-3.46-1.08-5.35-1.08s-3.7.36-5.36,1.08c-1.67.72-3.12,1.7-4.37,2.94-1.25,1.24-2.23,2.69-2.95,4.37-.72,1.68-1.08,3.46-1.08,5.35s.36,3.66,1.08,5.32c.72,1.66,1.71,3.11,2.95,4.35,1.24,1.25,2.7,2.23,4.37,2.95,1.67.72,3.45,1.08,5.36,1.08s3.67-.36,5.35-1.08c1.68-.72,3.13-1.71,4.37-2.95,1.24-1.25,2.21-2.7,2.94-4.35.72-1.66,1.08-3.43,1.08-5.32Z" style="fill: #373643;"/>
    </g>
    <path d="M32.6,49.33c-1.98,2.03-3.96,4.06-5.94,6.09-.84.86-1.73,1.68-2.54,2.58-.7.78-1.24.65-1.9-.06-1.02-1.1-2.06-2.18-3.17-3.17-.84-.76-.69-1.27.05-1.99,3.4-3.35,6.76-6.74,10.13-10.13.39-.39.75-.82,1.39-1.51-.83-.04-1.28-.09-1.74-.09-3.08,0-6.17-.04-9.25.02-1.15.02-1.54-.39-1.48-1.51.07-1.45.06-2.9,0-4.35-.04-1.02.37-1.36,1.36-1.34,3.23.03,6.45.01,9.68,0,.36,0,.72-.07,1.45-.16-4.29-4.33-8.34-8.41-12.6-12.71,1.6-1.53,3.06-2.92,4.51-4.32.67-.65,1.09-.19,1.56.28,2.48,2.5,4.97,4.99,7.46,7.48.37.37.76.71,1.42,1.34.06-.82.13-1.3.13-1.79,0-4.44.05-8.89-.02-13.33-.02-1.35.41-1.8,1.74-1.7,1.44.11,2.89.05,4.33.02.8-.02,1.11.32,1.11,1.12-.01,7.44,0,14.88-.04,22.32,0,.51-.32,1.1-.67,1.5-.82.94-1.73,1.81-2.65,2.66-.62.58-.77,1.09-.04,1.66.04.03.06.08.1.1,3.04,2.04,3.51,4.96,3.36,8.41-.25,5.83-.11,11.69-.03,17.53.02,1.37-.44,1.78-1.74,1.69-1.34-.09-2.7-.08-4.04,0-1.08.06-1.43-.34-1.42-1.41.04-4.49.02-8.99.01-13.48,0-.51,0-1.02,0-1.52-.18-.07-.36-.15-.54-.22Z" style="fill: #373643;"/>
  </g>
</svg>