<?xml version="1.0" encoding="UTF-8"?>
<svg xmlns="http://www.w3.org/2000/svg" viewBox="0 0 1920 1080">
  <g style="isolation: isolate;">
    <g id="katman_1" data-name="katman 1">
      <path d="M1105.68,1189.83c16.67-11.91,254.86-88.13,288.21-133.39,33.35-45.26,171.5-159.59,171.5-159.59,0,0,111.95-61.93,157.21-95.28,45.26-33.35,59.55-88.13,26.2-164.35-33.35-76.22-42.87-104.8-14.29-159.59,28.58-54.78,73.84-119.1,73.84-119.1l-73.84-154.82-28.58-178.64,90.51-97.66,178.64,7.15,71.46,438.27-85.75,826.52-855.1-9.53Z" style="fill: #00b7d2; stroke-width: 0px;"/>
      <path d="M1246.21,1154.11s114.33,9.53,192.93-66.69,66.69-90.51,140.53-145.3c73.84-54.78,121.48-64.31,166.73-102.42,45.26-38.11,116.71-30.96,88.13-135.77-28.58-104.8-71.46-92.89-42.87-183.41,28.58-90.51,92.89-150.06,90.51-200.08-2.38-50.02-38.11-73.84-66.69-116.71-28.58-42.87-88.13-102.42-47.64-161.97,40.49-59.55,109.57-97.66,109.57-97.66l-316.79-52.4-354.9,419.21-774.12,838.43,814.61,4.76Z" style="fill: #5ecad9; stroke-width: 0px;"/>
      <path d="M1747.2,128.3c-1.59-4.76-30.17-49.23-4.76-80.98,25.41-31.76,52.4-55.58,76.22-71.46,23.82-15.88,63.52-19.06,68.28-22.23,4.76-3.18-9.53-38.11-9.53-38.11,0,0-49.23,9.53-73.05,28.58-23.82,19.06-65.11,44.46-79.4,76.22-14.29,31.76-26.99,34.93-19.06,65.11,7.94,30.17,22.23,50.81,34.93,61.93,12.7,11.12,44.46,36.52,44.46,36.52l-38.11-55.58Z" style="fill: #00b7d2; stroke-width: 0px;"/>
      <path d="M1701.15,796.82c4.76-3.18,49.23-53.99,49.23-53.99,0,0,19.06-60.34,9.53-88.92-9.53-28.58-15.88-42.87-15.88-74.63s11.12-71.46,11.12-71.46l25.41-65.11,34.93-65.11,20.64-63.52s-6.35-30.17-22.23-52.4c-15.88-22.23-61.93-49.23-61.93-49.23,0,0,31.76,52.4,39.7,73.04,7.94,20.64,19.06,57.17-3.18,100.04-22.23,42.87-44.46,60.34-55.58,104.8-11.12,44.46-19.06,85.75-11.12,115.92,7.94,30.17,12.7,58.75,15.88,80.98,3.18,22.23,6.35,30.17-3.18,50.81-9.53,20.64-33.35,58.75-33.35,58.75Z" style="fill: #00b7d2; stroke-width: 0px;"/>
      <path d="M1037.39,1179.51s60.34-46.05,100.04-47.64c39.7-1.59,95.28-6.35,128.62-9.53,33.35-3.18,73.04-11.12,114.33-38.11,41.29-26.99,63.52-20.64,92.1-57.17,28.58-36.52,34.93-46.05,58.75-61.93,23.82-15.88,33.35-22.23,76.22-38.11,42.87-15.88,96.86-31.76,101.63-31.76s6.35-28.58,6.35-28.58c0,0-19.06-9.53-74.63,17.47-55.58,26.99-139.74,53.99-169.91,82.57-30.17,28.58-66.69,66.69-90.51,82.57-23.82,15.88-98.45,41.29-98.45,41.29,0,0-80.98,4.76-111.16,1.59-30.17-3.18-68.28-1.59-82.57,9.53-14.29,11.12-50.81,77.81-50.81,77.81Z" style="fill: #00b7d2; stroke-width: 0px;"/>
      <path d="M1366.49,1139.81s105.99-25.01,122.67-41.68c16.67-16.67,22.63-38.11,38.11-60.74,15.48-22.63,21.44-39.3,48.83-59.55,27.39-20.25,41.68-25.01,65.5-35.73,23.82-10.72,42.87-19.06,39.3-15.48-3.57,3.57-36.92,27.39-52.4,40.49-15.48,13.1-52.4,28.58-60.74,53.59-8.34,25.01-21.44,65.5-21.44,65.5,0,0-25.01,22.63-59.55,32.16-34.54,9.53-120.29,21.44-120.29,21.44Z" style="fill: #9fdddb; stroke-width: 0px;"/>
      <path d="M1749.98,808.73c4.76-8.34,26.2-29.77,29.77-58.36,3.57-28.58,0-44.07-3.57-72.65-3.57-28.58,7.15-76.22,7.15-76.22l28.58-40.49s-11.91,44.07-13.1,66.69c-1.19,22.63,1.19,53.59,5.95,72.65,4.76,19.06,10.72,42.87,1.19,60.74-9.53,17.86-55.97,47.64-55.97,47.64Z" style="fill: #9fdddb; stroke-width: 0px;"/>
      <path d="M1839.28,368.53c1.16-24.99-6.56-31.64-10.7-40.95-4.76-10.72-8.34-27.39-20.25-40.49-11.91-13.1-28.58-16.67-47.64-26.2-19.06-9.53-39.3-29.77-53.59-46.45-14.29-16.67-14.29-34.54-13.1-57.17s16.67-57.17,16.67-57.17l-22.63,26.2s-13.1,25.01-14.29,42.87c-1.19,17.86,4.76,30.96,14.29,52.4,9.53,21.44,28.58,33.35,45.26,42.87,14.73,8.42,31.32,20.55,46.48,30.65-9.94-5.25-21.73-10.03-34.57-13.98-30.96-9.53-41.68-21.44-69.08-38.11-27.39-16.67-29.77-27.39-36.92-65.5-7.15-38.11,27.39-97.66,27.39-97.66l-34.54,50.02s-14.29,51.21,0,94.08c14.29,42.87,72.65,70.27,111.95,85.75,39.3,15.48,23.82,14.29,54.78,42.87,30.96,28.58,11.91,30.96,7.15,97.66s-35.73,85.75-39.3,91.7c0,0,23.82-9.53,33.35-23.82,9.53-14.29,30.96-72.65,33.35-96.47,1.98-19.82,8.06-37.99,5.93-53.14Z" style="fill: #9fdddb; stroke-width: 0px;"/>
      <path d="M753.15,1107.26c.79-3.97,28.58-27.79,39.7-38.11,11.12-10.32,39.7-22.23,39.7-22.23,0,0,21.44-3.97,36.52-8.73,15.09-4.76,38.9-2.38,38.9-2.38,0,0-38.9,11.91-48.43,15.88-9.53,3.97-26.2,6.35-38.11,14.29-11.91,7.94-15.88,11.91-23.03,18.26-7.15,6.35-17.47,12.7-19.06,15.88-1.59,3.18-26.2,7.15-26.2,7.15Z" style="fill: #9fdddb; stroke-width: 0px;"/>
      <path d="M961.17,1115.2s37.32-24.61,62.72-35.73c25.41-11.12,39.7-15.09,60.34-20.64,20.64-5.56,32.55-2.38,50.02-7.94,17.47-5.56,31.76-5.56,45.26-15.09,13.5-9.53,27.79-25.41,27.79-25.41l13.5-29.38s2.38,17.47-4.76,36.52c-7.15,19.06-38.11,36.52-38.11,36.52,0,0-46.05,12.7-72.25,19.06-26.2,6.35-44.46,7.15-62.72,15.88-18.26,8.73-40.49,25.41-40.49,25.41l-41.29.79Z" style="fill: #9fdddb; stroke-width: 0px;"/>
      <path d="M1412.94,978.64s45.26-11.12,64.31-24.61c19.06-13.5,48.43-38.9,48.43-38.9,0,0,33.35-16.67,50.81-23.03,17.47-6.35,30.96-5.56,30.96-5.56,0,0-38.9,12.7-50.02,24.61-11.12,11.91-34.93,36.52-34.93,36.52l-30.17,19.06s-21.44,4.76-37.32,9.53c-15.88,4.76-42.08,2.38-42.08,2.38Z" style="fill: #9fdddb; stroke-width: 0px;"/>
      <path d="M1632.08,1111.23s38.11-38.11,76.22-59.55c38.11-21.44,80.98,4.76,100.04-47.64,19.06-52.4-4.76-50.02,33.35-92.89,38.11-42.87,64.31-35.73,69.08-88.13,4.76-52.4,9.53-104.8,2.38-145.3-7.15-40.49-19.06-38.11-30.96-92.89-11.91-54.78-16.67-52.4,11.91-97.66,28.58-45.26,59.55-64.31,64.31-92.89,4.76-28.58,16.67-85.75,26.2-116.71,9.53-30.96-2.38-88.13-23.82-100.04-21.44-11.91-42.87,11.91-61.93-50.02-19.06-61.93-64.31-97.66-11.91-131,52.4-33.35,71.46-26.2,80.98-19.06,9.53,7.15,66.69,140.53,69.08,190.55,2.38,50.02-4.76,252.48-11.91,312.03-7.15,59.55-54.78,309.65-52.4,338.23s14.29,231.04-11.91,254.86c-26.2,23.82-64.31,88.13-145.3,78.6-80.98-9.53-183.41-40.49-183.41-40.49Z" style="fill: #00abca; stroke-width: 0px;"/>
      <path d="M1553.66,447.05c10.43,25.63,14.64,51.5,13.54,77.1-.4,9.78-1.6,19.54-3.51,29.23-14.46,73.22-70.18,143.12-145.43,199.3-106.73,79.62-286.99,85.25-472.78,153.43-185.8,68.21-349.35,222.41-349.35,222.41H3.84V-5.28h1573.63s-114.33,65.13-127.03,146.11c-5.88,37.53,6.31,82.55,25.51,130.97,4.8,12.12,10.06,24.43,15.57,36.92,19.97,45.23,43.44,92.36,62.15,138.32Z" style="fill: #fff; stroke-width: 0px;"/>
      <path d="M370.55,1022.2c-.16-.57-.45-1.07-.87-1.5-.23-.18-.46-.35-.69-.53-.53-.31-1.1-.46-1.71-.46-.47-.02-.9.08-1.31.29-.42.14-.78.37-1.09.7-.33.31-.56.67-.7,1.09-.21.4-.31.84-.29,1.31.04.3.08.6.12.9.16.57.45,1.07.87,1.5.23.18.46.35.69.53.53.31,1.1.46,1.71.46.47.02.9-.08,1.31-.29.42-.14.78-.37,1.09-.7.33-.31.56-.67.7-1.09.21-.4.31-.84.29-1.31l-.12-.9Z" style="fill: #fff4e3; stroke-width: 0px;"/>
      <path d="M440.38,980.97c-.19-.18-.49-.27-.74-.17-.04.02-.08.03-.13.05l-.11.04s-.03-.01-.05-.01c-.15,0-.3.03-.43.1-.14.05-.26.12-.36.23-.11.11-.17.25-.23.39-.1.11-.19.23-.29.34-.09.09-.16.19-.2.31-.06.11-.09.24-.08.37,0,.13.02.26.08.37.04.12.1.22.2.31.18.17.42.29.68.28l.26-.03c.16-.05.3-.13.42-.25.11-.1.23-.19.34-.29.14-.06.28-.12.39-.23.11-.1.19-.22.23-.36.07-.13.1-.28.1-.43,0-.02-.01-.03-.01-.05.01-.04.03-.07.04-.1.02-.04.03-.08.04-.12.1-.25.02-.56-.17-.75Z" style="fill: #fff4e3; stroke-width: 0px;"/>
      <path d="M570.45,961.57c-.08-.26-.23-.48-.43-.67-.19-.2-.41-.34-.67-.43-.25-.13-.51-.19-.8-.18-.18.02-.37.05-.55.07-.35.1-.65.28-.91.53-.11.14-.22.28-.32.42-.19.32-.28.67-.28,1.04.02.18.05.37.07.55.06.27.19.5.37.7.05.08.15.13.21.2,0,.04.01.08.02.13.05.12.1.23.15.34.09.17.21.3.37.4.09.09.2.15.32.19.17.09.36.13.56.12.13-.02.26-.03.38-.05.12-.05.23-.1.34-.15.17-.09.3-.21.4-.37.13-.14.21-.3.26-.49,0-.02,0-.04.01-.07.02-.02.04-.03.06-.05.2-.19.34-.41.43-.67.13-.25.19-.51.18-.8.01-.28-.05-.55-.18-.8Z" style="fill: #fff4e3; stroke-width: 0px;"/>
      <path d="M20.72,875.08c-1.98,0-1.98,3.08,0,3.08s1.98-3.08,0-3.08Z" style="fill: #fff4e3; stroke-width: 0px;"/>
      <path d="M95.94,872.65c-.05-.12-.1-.23-.15-.35-.09-.17-.22-.31-.38-.41-.09-.09-.2-.15-.32-.19-.17-.09-.36-.13-.56-.13-.13.02-.26.03-.39.05-.08.03-.15.06-.23.1-.29.04-.59.09-.88.13-.1.04-.2.08-.29.12-.14.08-.26.18-.34.32-.08.08-.13.17-.16.27-.08.15-.11.3-.11.47.01.11.03.22.04.33l.12.29c.08.14.18.26.32.34.12.11.26.18.42.22.3.04.6.09.9.13.01,0,.02.02.03.02.17.09.36.13.56.13.13-.02.26-.03.39-.05l.35-.15c.17-.09.31-.22.41-.38.09-.09.15-.2.19-.32.09-.17.13-.36.13-.56-.02-.13-.03-.26-.05-.39Z" style="fill: #fff4e3; stroke-width: 0px;"/>
      <path d="M267.25,923.15c-1.42,0-1.43,2.21,0,2.21s1.43-2.21,0-2.21Z" style="fill: #fff4e3; stroke-width: 0px;"/>
      <path d="M59.73,325.5c-.35-.35-.92-.53-1.4-.37-.17.05-.33.14-.49.21-.06.03-.11.05-.17.08-.12.05-.23.11-.35.16-.23.1-.45.21-.68.31-.3.18-.53.41-.71.71-.18.31-.27.64-.27.99l.07.52c.09.33.26.62.51.87.18.19.39.33.63.41.24.12.49.18.76.17.36,0,.69-.09.99-.27.3-.18.53-.41.71-.71.1-.23.21-.45.31-.68.05-.11.1-.22.15-.34.03-.06.05-.11.08-.17.01-.03.03-.06.04-.08.06-.14.13-.28.18-.42.16-.48-.02-1.05-.37-1.4Z" style="fill: #fff4e3; stroke-width: 0px;"/>
      <path d="M120.05,261.2l-.17-.41c-.11-.2-.26-.36-.45-.49-.11-.11-.24-.18-.38-.22-.21-.11-.43-.16-.67-.15l-.46.06c-.14.06-.28.12-.41.17-.2.11-.36.26-.49.45-.15.17-.26.36-.31.59-.02.13-.05.27-.07.4-.09.32-.09.64,0,.96.09.31.24.57.46.8.12.09.24.19.36.28.28.16.58.24.91.25.25,0,.48-.04.69-.16.22-.07.42-.2.58-.37.22-.22.38-.49.46-.8.09-.32.09-.64,0-.96-.02-.13-.05-.27-.07-.4Z" style="fill: #fff4e3; stroke-width: 0px;"/>
      <path d="M89.79,211.55c-2.2,0-2.2,3.41,0,3.41s2.2-3.41,0-3.41Z" style="fill: #fff4e3; stroke-width: 0px;"/>
      <path d="M918.7,201.95c-2.29,0-2.29,3.56,0,3.56s2.29-3.56,0-3.56Z" style="fill: #fff4e3; stroke-width: 0px;"/>
      <path d="M840.09,297.66c-1.73,0-1.74,2.69,0,2.69s1.74-2.69,0-2.69Z" style="fill: #fff4e3; stroke-width: 0px;"/>
      <path d="M843.67,266.72c-1.7,0-1.7,2.64,0,2.64s1.7-2.64,0-2.64Z" style="fill: #fff4e3; stroke-width: 0px;"/>
      <path d="M855.42,423.02c-.27-.25-.66-.47-1.04-.43-.76.08-1.53.16-2.29.24-.17,0-.33.03-.47.11-.15.05-.28.13-.4.25-.21.21-.37.56-.36.87.01.32.12.65.36.87l.25.19c.19.11.4.17.62.17.76.08,1.53.16,2.29.24.2,0,.39-.03.56-.13.18-.06.34-.16.47-.3.25-.25.45-.67.43-1.04-.02-.38-.14-.77-.43-1.04Z" style="fill: #fff4e3; stroke-width: 0px;"/>
      <path d="M827.17,657.1c-.07-.24-.19-.45-.36-.63-.1-.07-.19-.15-.29-.22-.22-.13-.46-.19-.72-.19-.39.02-.78.05-1.17.07-.19,0-.36.03-.52.12-.17.05-.31.15-.43.28-.13.12-.22.27-.28.43-.08.16-.12.33-.12.52.02.12.03.24.05.36.06.23.18.43.35.59l.27.21c.21.12.44.18.68.18.39.02.78.05,1.17.07.2,0,.38-.03.55-.12.18-.06.33-.15.46-.29.14-.13.24-.28.29-.46.09-.17.13-.35.12-.55-.02-.13-.03-.25-.05-.38Z" style="fill: #fff4e3; stroke-width: 0px;"/>
      <path d="M704.06,842.88c-.04-.13-.11-.23-.21-.32-.07-.05-.14-.11-.2-.16-.16-.09-.33-.14-.51-.14-.05,0-.1.01-.15.02-.01,0-.03,0-.04,0-.1.01-.25.02-.34.05-.1.04-.19.08-.29.12-.08.06-.16.13-.24.19-.02.01-.03.03-.05.04-.11.09-.22.19-.34.28l-.67.57c-.13.12-.22.26-.27.43-.08.16-.12.33-.11.51,0,.18.03.35.11.51.05.16.14.31.27.43l.27.21c.21.12.43.18.67.18.12-.02.23-.03.35-.05.22-.06.42-.18.58-.34.19-.22.38-.45.57-.67.09-.11.18-.22.28-.33.15-.18.3-.35.36-.59.03-.12.04-.25.05-.38,0-.05.01-.11.02-.16,0-.14-.02-.27-.09-.39Z" style="fill: #fff4e3; stroke-width: 0px;"/>
      <path d="M732.19,759.44c-.06-.14-.12-.28-.17-.41-.15-.26-.36-.47-.62-.62l-.26-.17c-.12-.07-.21-.11-.35-.17-.09-.04-.14-.05-.26-.05s-.17.02-.26.05c-.09.04-.19.07-.28.13-.02.01-.05.03-.07.04-.09.06-.18.11-.26.17-.2.11-.36.26-.49.45-.11.11-.18.24-.22.38-.11.21-.16.43-.15.67.02.15.04.31.06.46.06.14.12.28.17.41.11.2.26.36.45.49.11.11.24.18.38.22.21.11.43.16.67.15.15-.02.31-.04.46-.06.14-.06.28-.12.41-.17.2-.11.36-.26.49-.45.11-.11.18-.24.22-.38.11-.21.16-.43.15-.67-.02-.15-.04-.31-.06-.46Z" style="fill: #fff4e3; stroke-width: 0px;"/>
      <path d="M711.67,721.41c-.07-.24-.19-.46-.37-.64l-.29-.23c-.22-.13-.47-.2-.73-.2-.37.03-.75.06-1.12.1-.19,0-.36.03-.52.12-.17.05-.31.15-.43.28-.13.12-.22.27-.28.43-.08.16-.12.33-.12.52.02.12.03.24.05.36.06.23.18.43.35.59.09.07.18.14.27.21.21.12.44.18.68.18.37.03.75.06,1.12.1.2,0,.38-.03.56-.12.18-.06.33-.16.46-.3.14-.13.24-.29.3-.46.09-.17.13-.36.12-.56-.02-.13-.03-.26-.05-.38Z" style="fill: #fff4e3; stroke-width: 0px;"/>
      <path d="M736.62,723.48c-.1-.34-.2-.67-.31-1.01-.05-.16-.1-.32-.15-.48-.1-.33-.25-.63-.41-.92-.32-.59-1-.95-1.66-.95s-1.34.36-1.66.95c-.16.29-.31.58-.41.9-.05.17-.1.34-.15.51-.1.34-.2.67-.31,1.01-.26.86,0,1.94.67,2.55.18.14.35.27.53.41.41.24.85.36,1.32.36.36.01.7-.06,1.01-.23.32-.11.61-.29.84-.54.65-.65.94-1.66.67-2.55Z" style="fill: #fff4e3; stroke-width: 0px;"/>
      <path d="M751.96,692.72c-2.17,0-2.17,3.36,0,3.36s2.17-3.36,0-3.36Z" style="fill: #fff4e3; stroke-width: 0px;"/>
      <path d="M1223.3,694.99s-.01-.02-.02-.03c-.05-.1-.12-.19-.2-.27-.12-.12-.25-.21-.41-.26-.1-.04-.18-.07-.28-.1-.05-.01-.1-.03-.15-.04-.21-.06-.41-.12-.62-.17-.51-.14-1.13,0-1.5.4-.08.1-.16.21-.24.31-.14.24-.21.5-.21.78,0,.21.04.41.13.59.06.19.17.36.32.49.39.39.97.54,1.5.4.21-.06.41-.12.62-.17.1-.03.19-.05.29-.08.33-.1.63-.32.78-.63.1-.19.17-.38.17-.6s-.08-.41-.17-.6Z" style="fill: #fff4e3; stroke-width: 0px;"/>
      <path d="M1263.08,701.16l-.29-1.14c-.05-.19-.09-.37-.14-.56-.02-.09-.04-.18-.07-.27-.05-.18-.12-.29-.23-.43-.17-.22-.37-.38-.66-.38s-.5.16-.66.38c-.1.13-.17.23-.22.41-.03.1-.05.19-.07.29-.05.19-.09.37-.14.56-.1.38-.19.76-.29,1.14-.12.48,0,1.05.37,1.4.28.26.63.42,1.02.42.37,0,.76-.16,1.02-.42.37-.37.5-.9.37-1.4Z" style="fill: #fff4e3; stroke-width: 0px;"/>
      <path d="M1265.14,635.44s-.04-.05-.06-.08c-.07-.09-.14-.19-.21-.28-.12-.12-.25-.21-.41-.26-.3-.13-.67-.15-.99-.06-.41.11-.71.36-.93.71-.03.05-.07.11-.1.16-.13.2-.26.41-.39.61-.26.42-.52.83-.78,1.24-.25.4-.28.89-.17,1.33.08.29.23.55.44.76.16.17.34.29.56.36.21.11.43.16.67.15.24,0,.46-.04.67-.15.21-.07.4-.19.56-.36.21-.22.36-.47.44-.76.18-.44.35-.88.53-1.33l.27-.68c.02-.06.05-.11.07-.17.12-.34.06-.88-.16-1.19Z" style="fill: #fff4e3; stroke-width: 0px;"/>
      <path d="M1336.48,635.78c-.08-.33-.17-.67-.26-1-.02-.06-.05-.11-.07-.17-.05-.08-.11-.15-.19-.2-.12-.09-.28-.16-.44-.16-.13,0-.25.04-.36.1-.15.08-.29.26-.33.43-.08.33-.17.67-.25,1-.08.33,0,.72.25.96.19.18.43.29.7.29.25,0,.52-.11.7-.29.25-.25.34-.62.25-.96Z" style="fill: #fff4e3; stroke-width: 0px;"/>
      <path d="M1389.12,42.28c-3.93,0-3.94,6.11,0,6.11s3.94-6.11,0-6.11Z" style="fill: #fff4e3; stroke-width: 0px;"/>
      <path d="M1309.33,42.72c-1.83,0-1.83,2.84,0,2.84s1.83-2.84,0-2.84Z" style="fill: #fff4e3; stroke-width: 0px;"/>
      <path d="M1333.35,43.76c-.06-.21-.12-.41-.17-.62-.03-.1-.05-.19-.08-.29-.09-.31-.29-.58-.58-.73-.18-.09-.35-.16-.55-.16s-.37.07-.55.16c-.01,0-.02.01-.03.02-.09.05-.18.11-.25.19-.12.11-.2.23-.24.38-.04.09-.07.18-.1.27-.01.05-.03.1-.04.15-.06.21-.12.41-.17.62-.13.48,0,1.06.37,1.4l.29.23c.23.13.47.2.73.2.2,0,.38-.03.56-.12.18-.06.33-.16.46-.3.36-.36.51-.91.37-1.4Z" style="fill: #fff4e3; stroke-width: 0px;"/>
      <path d="M1380.78,25.51c-.99,0-.99,1.54,0,1.54s.99-1.54,0-1.54Z" style="fill: #fff4e3; stroke-width: 0px;"/>
      <path d="M1458.4,10.59l-.4-.31c-.31-.18-.64-.27-.99-.27-.37.05-.75.1-1.12.15-.19.02-.37.05-.56.07-.31.04-.65.06-.95.16-.13.06-.26.11-.4.17-.19.1-.35.25-.46.43-.1.1-.17.22-.21.36-.1.2-.15.41-.14.64.01.29.09.57.23.83.2.37.6.64.99.76.31.09.64.12.95.16.19.02.37.05.56.07.37.05.75.1,1.12.15.27.01.52-.05.76-.17.24-.08.46-.22.63-.41.19-.18.33-.39.41-.63.12-.23.18-.49.17-.76-.02-.51-.19-1.04-.58-1.39Z" style="fill: #fff4e3; stroke-width: 0px;"/>
      <path d="M894.58,28.14c-.15-.2-.28-.4-.51-.54-.17-.1-.37-.14-.56-.19-.19-.05-.38-.1-.58-.15-.19-.05-.38-.1-.58-.15-.36-.09-.69-.07-1.05-.05-.42.02-.83.17-1.14.47-.28.28-.49.74-.47,1.14.02.42.16.85.47,1.14.32.3.7.45,1.14.47.36.02.69.04,1.05-.05.19-.05.38-.1.58-.15.19-.05.38-.1.58-.15.19-.05.39-.09.56-.19.23-.13.36-.33.51-.54.2-.26.2-.78,0-1.04Z" style="fill: #fff4e3; stroke-width: 0px;"/>
      <path d="M811.87,46.09c-.08-.27-.21-.51-.41-.71-.11-.08-.22-.17-.33-.25-.25-.15-.52-.22-.81-.22-.37.02-.75.03-1.12.05-.22,0-.42.04-.6.13-.19.06-.36.17-.5.32-.15.14-.26.31-.32.5-.1.19-.14.39-.13.6.02.14.04.28.06.42.07.26.21.49.4.69.11.08.21.16.32.24.24.14.51.21.79.21.37.02.75.03,1.12.05.22,0,.43-.04.62-.14.2-.06.37-.18.52-.33.16-.15.27-.32.33-.52.1-.19.15-.4.14-.62l-.06-.43Z" style="fill: #fff4e3; stroke-width: 0px;"/>
      <path d="M1205.98,33.01c-.05-.12-.1-.24-.16-.37-.1-.18-.23-.32-.4-.43-.1-.1-.21-.16-.34-.2-.18-.1-.38-.14-.59-.13-.14.02-.27.04-.41.06l-.37.16s-.02.02-.03.03c-.12,0-.24.02-.36.03-.18,0-.34.03-.49.11-.16.05-.29.14-.41.26-.12.12-.21.25-.26.41-.08.15-.12.32-.11.49l.05.34c.06.22.17.4.33.56.09.07.17.13.26.2.2.12.41.17.64.17.13.01.27.02.4.03.06.03.11.08.17.1.18.1.38.14.59.13.14-.02.27-.04.41-.05.12-.05.24-.1.37-.16.18-.1.32-.23.43-.4.1-.1.16-.21.2-.34.1-.18.14-.38.13-.59-.02-.14-.04-.27-.05-.41Z" style="fill: #fff4e3; stroke-width: 0px;"/>
      <path d="M1173.87,749.91c-.01-.14-.02-.28-.03-.42,0-.14-.03-.28-.06-.42-.05-.12-.1-.23-.15-.35-.13-.24-.33-.4-.55-.54-.03-.02-.06-.04-.09-.06-.35-.23-.89-.23-1.24,0-.03.02-.06.04-.09.06,0,0-.02.01-.03.02-.17.09-.31.22-.41.38-.13.14-.22.31-.26.5-.03.14-.05.28-.06.42-.01.14-.02.28-.03.42l-.06.86c0,.22.04.42.13.6.06.19.17.36.32.5.14.15.31.26.5.32.19.1.39.14.6.13.14-.02.28-.04.42-.06.26-.07.49-.21.69-.4.27-.29.49-.69.46-1.1-.02-.29-.04-.57-.06-.86Z" style="fill: #f1ad82; stroke-width: 0px;"/>
      <path d="M614.23,1006.46c0-.22-.08-.42-.24-.58-.14-.14-.37-.25-.58-.24-.46.02-.8.36-.82.82-.02.52-.05,1.04-.07,1.56-.01.22.11.47.26.63s.41.27.63.26c.23-.01.47-.09.63-.26.16-.17.27-.39.26-.63-.02-.52-.05-1.04-.07-1.56Z" style="fill: #f1ad82; stroke-width: 0px;"/>
      <path d="M703.28,982.61c0-.13-.02-.25-.08-.36-.04-.12-.1-.22-.19-.3-.16-.16-.43-.28-.66-.27-.24.01-.49.09-.66.27-.05.06-.1.13-.15.19-.08.15-.13.3-.13.47-.06.53-.13,1.06-.19,1.59,0,.16.03.3.1.44.05.14.12.26.23.36.1.11.22.19.36.23.13.07.28.1.44.1.29-.01.6-.11.8-.33.06-.08.12-.15.18-.23.1-.18.15-.37.15-.57-.06-.53-.13-1.06-.19-1.59Z" style="fill: #f1ad82; stroke-width: 0px;"/>
      <path d="M754.49,956.28c-.25.07-.5.14-.72.29l-.47.29c-.31.2-.62.39-.93.59-.45.29-.8.79-.77,1.35l.06.42c.07.26.21.49.4.69.14.15.31.26.5.32.19.1.39.14.6.13.56,0,1.05-.3,1.35-.77.2-.31.39-.62.59-.93.1-.15.19-.3.29-.45.14-.23.22-.48.29-.74.21-.7-.49-1.39-1.18-1.18Z" style="fill: #f1ad82; stroke-width: 0px;"/>
      <path d="M878.6,887.58c-3.77,0-3.78,5.86,0,5.86s3.78-5.86,0-5.86Z" style="fill: #f1ad82; stroke-width: 0px;"/>
      <path d="M899.91,887.31c-.15-.08-.34-.15-.5-.21-.02,0-.05-.02-.07-.03-.05-.02-.1-.04-.16-.06-.1-.04-.2-.07-.3-.11-.2-.08-.4-.15-.61-.23-.41-.11-.83-.11-1.24,0-.4.11-.74.31-1.03.6-.12.16-.24.31-.36.47-.21.36-.32.76-.32,1.18-.01.32.06.62.2.9.09.29.25.54.48.75.29.29.63.49,1.03.6.41.11.83.11,1.24,0,.2-.08.4-.15.61-.23.34-.13.71-.24,1.02-.41.57-.32.93-.97.93-1.61s-.35-1.3-.93-1.61Z" style="fill: #f1ad82; stroke-width: 0px;"/>
      <path d="M1335.93,11.2c-1.52,0-1.52,2.36,0,2.36s1.52-2.36,0-2.36Z" style="fill: #f1ad82; stroke-width: 0px;"/>
      <path d="M1361.33,211.93c-2.72,0-2.73,4.23,0,4.23s2.73-4.23,0-4.23Z" style="fill: #f1ad82; stroke-width: 0px;"/>
      <path d="M1407.38,384.1c-1.86,0-1.86,2.88,0,2.88s1.86-2.88,0-2.88Z" style="fill: #f1ad82; stroke-width: 0px;"/>
      <path d="M1325.97,685.35c-.04-.1-.08-.19-.12-.29-.08-.14-.18-.25-.31-.34-.07-.07-.16-.13-.26-.15-.14-.08-.3-.11-.46-.1-.21,0-.42.06-.61.16-.14.08-.25.18-.34.31-.11.12-.18.25-.22.41-.08.51-.15,1.02-.23,1.52-.07.26-.07.51,0,.77.07.24.19.46.37.64.28.26.63.42,1.02.42.2,0,.38-.03.56-.12.18-.06.33-.16.46-.3.18-.18.3-.39.37-.64.07-.26.07-.51,0-.77-.08-.51-.15-1.02-.23-1.52Z" style="fill: #f1ad82; stroke-width: 0px;"/>
      <path d="M1352.89,677.03c-.16-.24-.32-.44-.58-.59-.29-.17-.47-.18-.8-.21-.03,0-.06,0-.1,0-.13-.01-.26-.03-.4-.04-.27-.03-.54-.06-.81-.09-.23,0-.44.04-.63.14-.2.07-.38.18-.53.34-.16.15-.27.32-.34.53-.1.19-.15.4-.14.63.02.14.04.29.06.43.08.28.22.52.42.72.11.09.22.17.33.26.26.15.53.22.83.22.27-.03.54-.06.81-.09.13-.01.26-.03.4-.04.03,0,.06,0,.1-.01.14-.02.29-.03.43-.06l.36-.15c.26-.13.44-.36.59-.6.25-.39.25-.99,0-1.38Z" style="fill: #f1ad82; stroke-width: 0px;"/>
      <path d="M1313.33,725.03l-.13-.3c-.08-.15-.19-.27-.33-.36-.12-.11-.27-.19-.43-.23-.51-.08-1.02-.15-1.52-.23-.27-.07-.54-.07-.81,0-.26.07-.48.2-.67.39-.27.3-.44.66-.44,1.07,0,.21.04.4.13.58.06.19.17.35.31.49.19.19.41.32.67.39.27.07.54.07.81,0,.51-.08,1.02-.15,1.52-.23l.3-.13c.15-.08.27-.19.36-.33.08-.08.13-.17.16-.28.08-.15.12-.32.11-.49-.02-.11-.03-.23-.05-.34Z" style="fill: #f1ad82; stroke-width: 0px;"/>
      <path d="M1385.71,716.95c-.14-.39-.29-.78-.6-1.07-.15-.11-.3-.23-.44-.34-.18-.08-.35-.16-.54-.23-.02,0-.05-.02-.07-.03-.03-.01-.06-.02-.09-.03-.12-.05-.24-.06-.37-.06-.34-.08-.69-.06-1.03.05-.41.13-.78.35-1.15.56-.16.09-.32.18-.48.28-.25.02-.49.06-.71.19-.25.11-.41.17-.62.31l-.23.15c-.3.2-.6.39-.9.59-.57.34-1.02.79-1.36,1.36-.34.59-.52,1.23-.52,1.92.05.34.09.67.14,1.01.18.64.51,1.2.98,1.68.34.37.75.63,1.22.79.45.24.94.35,1.46.33.69,0,1.32-.18,1.92-.52.57-.34,1.02-.79,1.36-1.36.2-.3.39-.6.59-.9.1-.14.2-.29.29-.44.12-.28.23-.55.35-.83.02-.12.03-.23.05-.35l.25-.43c.21-.36.47-.75.56-1.15.11-.48.13-1.01-.04-1.48Z" style="fill: #f1ad82; stroke-width: 0px;"/>
      <path d="M1410.56,709.32c-2.26,0-2.26,3.51,0,3.51s2.26-3.51,0-3.51Z" style="fill: #f1ad82; stroke-width: 0px;"/>
      <path d="M1400.24,699.16c-.22-.21-.45-.42-.75-.5-.12-.03-.24-.04-.36-.06l-.81-.13c-.53-.08-1.05-.17-1.58-.25-.32-.09-.64-.09-.96,0-.31.09-.57.24-.8.46-.32.35-.53.79-.53,1.27,0,.46.2.95.53,1.27.22.22.49.38.8.46.32.09.64.09.96,0,.53-.08,1.05-.17,1.58-.25.26-.04.52-.08.78-.12.13-.02.26-.03.39-.07.31-.08.53-.29.75-.5.44-.4.44-1.19,0-1.6Z" style="fill: #f1ad82; stroke-width: 0px;"/>
      <path d="M1522.66,567.11c-.45-.51-1.38-.62-1.95-.25-.23.15-.43.34-.58.58-.24.37-.23.8-.16,1.21-.01-.1-.03-.19-.04-.29.03.25.03.5,0,.75.02-.13.04-.26.05-.39,0,0,0,0,0,0-.04.27-.09.53-.09.8,0,.04,0,.08,0,.11-.05.26-.13.5-.22.75-.08.17-.18.33-.28.48-.12.13-.23.26-.37.37-.03.02-.06.04-.08.06-.13.08-.19.22-.29.32-.15.05-.31.11-.47.14-.32.06-.71.38-.86.66-.15.29-.22.59-.17.92.04.3.16.62.4.83.3.27.62.38,1.02.42.27.03.55-.03.82-.06.3.06.61.08.91-.02.23-.08.47-.19.69-.31.34-.19.66-.44.95-.69.5-.43.92-.98,1.22-1.56.38-.73.58-1.54.59-2.36.01-.95-.47-1.78-1.07-2.47Z" style="fill: #f1ad82; stroke-width: 0px;"/>
      <path d="M1515.86,456.19c-.09-.28-.24-.52-.46-.72-.15-.12-.3-.23-.45-.35l-.53-.23c-.3-.09-.59-.11-.89-.04-.3.01-.57.1-.83.27-.07.05-.14.1-.21.15-.15.06-.29.12-.44.18-.21.1-.38.23-.52.4-.01.02-.03.03-.04.05-.06.07-.12.15-.18.22l-.17.21s-.03.03-.04.05c-.24.22-.41.49-.51.79-.11.19-.17.4-.17.62-.01.04,0,.08,0,.12-.01.05-.03.09-.04.14-.2.71.02,1.5.53,2.02.26.26.56.44.92.53.37.1.74.1,1.1,0,.07-.03.13-.05.2-.08.12-.02.23-.03.35-.05.32-.08.6-.22.83-.44.11-.09.19-.14.28-.23.07-.06.14-.13.2-.19.06-.06.13-.12.19-.18.02-.01.03-.03.05-.05.09-.08.16-.17.22-.28.15-.16.26-.34.32-.55.04-.07.03-.15.06-.22.03-.06.07-.12.1-.17.08-.18.15-.36.23-.53.09-.3.11-.59.04-.89,0-.2-.05-.39-.15-.56Z" style="fill: #f1ad82; stroke-width: 0px;"/>
      <path d="M1491.52,432.67c-.09-.33-.26-.61-.49-.85-.13-.1-.26-.2-.39-.3-.3-.17-.62-.26-.97-.26-.43-.05-.87-.1-1.3-.14-.28-.01-.55.05-.8.18-.26.08-.48.23-.67.43-.2.19-.34.41-.43.67-.13.25-.19.51-.18.8.02.18.05.37.07.55.1.35.28.65.53.91.14.11.28.22.42.32.32.19.67.28,1.04.28.43-.05.87-.1,1.3-.14.26,0,.51-.05.74-.17.24-.08.44-.21.62-.4.19-.17.32-.38.4-.62.12-.23.18-.48.17-.74-.02-.17-.05-.34-.07-.51Z" style="fill: #f1ad82; stroke-width: 0px;"/>
      <path d="M1407.38,98.57c-3.53,0-3.53,5.48,0,5.48s3.53-5.48,0-5.48Z" style="fill: #f1ad82; stroke-width: 0px;"/>
      <path d="M1408.96,153.71c-.56-.56-1.41-.79-2.17-.58-.38.11-.71.3-.99.58-.28.28-.47.61-.58.99-.16.51-.32,1.02-.48,1.54,0,.03-.02.06-.03.09,0,.01,0,.03-.01.04-.06.23-.05.32-.03.53,0,.06.02.11.02.17.04.1.09.21.13.31,0,0,0,0,0,.01,0,0,.01.02.02.03.1.16.25.32.42.41.06.03.09.04.18.08.05.02.1.04.15.07.17.05.34.06.52.02.08-.01.14-.01.21-.03.26-.07.52-.16.78-.24.29-.09.58-.18.87-.27.38-.11.71-.3.99-.58.28-.28.47-.61.58-.99.21-.77-.01-1.61-.58-2.17Z" style="fill: #f1ad82; stroke-width: 0px;"/>
      <path d="M1410.56,202.45c-2.66,0-2.66,4.13,0,4.13s2.66-4.13,0-4.13Z" style="fill: #f1ad82; stroke-width: 0px;"/>
      <path d="M1529.66,444.05c10.43,25.63,14.64,51.5,13.54,77.1l-3.51,29.23c-14.46,73.22-70.18,143.12-145.43,199.3-106.73,79.62-286.99,85.25-472.78,153.43-185.8,68.21-349.35,222.41-349.35,222.41h-66.06c21.72-18.12,59.47-46.76,93.07-69.87,50.8-34.92,42.8-61.93,88.08-90.51,45.29-28.58,61.81-20.98,113.9-43.04,52.09-22.06,39.38-39.75,118.76-68.21,79.41-28.49,119.22-39.2,200.13-41.78,80.95-2.58,141.74-18.46,185.98-53.38,44.21-34.95,17.97-47.66,88.27-79.41,70.3-31.75,107.87-100.05,111.31-155.62,3.45-55.59-20.37-63.53-44.21-115.93-23.81-52.39-14.28-46.06-20.64-79.41-6.34-33.32-55.38-125.43-52.3-177.83,3.08-52.39,6.28-79.41,53.9-104.82,36.4-19.38,73.69-39.81,91.41-53.99h19.75s-114.33,65.13-127.03,146.11c-5.88,37.53,6.31,82.55,25.51,130.97,4.8,12.12,10.06,24.43,15.57,36.92,19.97,45.23,43.44,92.36,62.15,138.32Z" style="fill: #ffd2b1; mix-blend-mode: multiply; opacity: .5; stroke-width: 0px;"/>
      <path d="M1570.15,407.38c-28.58-23.82-54.78-23.82-64.31-42.87-9.53-19.06,1.19-19.06,8.34-28.58,7.15-9.53,5.95-16.67,3.57-33.35-2.38-16.67-13.1-14.29-10.72-27.39,2.38-13.1,9.53-22.63,9.53-34.54s-9.53-13.1-17.86-14.29-10.72-2.38-10.72-2.38c0,0-22.63-1.19-33.35-10.72-10.72-9.53,3.57-13.1,16.67-30.96,13.1-17.86-4.76-15.48-16.67-34.54-11.91-19.06,0-20.25,20.25-42.87,20.25-22.63,20.25-40.49,39.3-58.36,19.06-17.86,57.17-53.59,60.74-55.97,3.57-2.38,17.86-20.25-9.53-10.72-27.39,9.53-114.33,88.13-129.81,107.19-15.48,19.06-23.82,76.22-13.1,115.52,10.72,39.3,44.07,116.71,45.26,138.15s-2.38,14.29,5.95,44.06c8.34,29.77,25.01,15.48,39.3,28.58,14.29,13.1,22.63,58.36,25.01,107.19,2.38,48.83-73.84,154.82-102.42,181.48-28.58,26.66-84.56,65.05-125.05,81.57-40.49,16.53-198.89,53.74-238.19,56.71s-83.37,14.89-120.29,33.95c-36.92,19.06-177.45,90.51-214.3,105.99-36.85,15.48-183.48,151.25-183.48,151.25,0,0,116.71-20.25,127.43-41.68,10.72-21.44,19.06-30.96,41.68-55.97,22.63-25.01,22.63-20.25,57.17-36.92,34.54-16.67,61.93-17.86,96.47-23.82,34.54-5.95,60.74,2.38,91.7,8.34,30.96,5.95,75.03,13.1,119.09-1.19,44.07-14.29,23.82-21.44,25.01-42.87,1.19-21.44-15.48-35.73-5.95-58.36,9.53-22.63,20.25-23.82,41.68-30.96,21.44-7.15,191.74-19.06,191.74-19.06l69.08-7.15s51.21,11.91,88.13,4.76c36.92-7.15,50.02-32.16,59.55-63.12,9.53-30.96-13.1-53.59-17.86-79.79-4.76-26.2,19.06-13.1,27.39-23.82,8.34-10.72-5.95-26.2-4.76-47.64,1.19-21.44,22.63-15.48,41.68-40.49,19.06-25.01,19.06-54.78,20.25-79.79,1.19-25.01-25.01-60.74-53.59-84.56ZM1515.36,26.87s8.93,0,2.98,4.76c-5.95,4.76-10.72,10.72-14.29,11.91-3.57,1.19-4.17-3.57-4.17-3.57l15.48-13.1ZM1457.6,85.82c1.79-2.38,11.91-11.91,16.08-17.27,4.17-5.36,13.1-14.29,13.1-14.29,0,0,3.57,4.76,0,8.93-3.57,4.17-8.93,14.29-13.1,19.06-4.17,4.76-9.53,16.08-13.1,12.5-3.57-3.57-2.98-8.93-2.98-8.93ZM1438.55,183.48c-.6-2.38-1.79-23.22-1.79-23.22l13.7,1.79s13.1,5.95,9.53,12.5c-3.57,6.55-8.34,10.72-13.1,10.72s-8.34-1.79-8.34-1.79ZM1495.71,282.93s3.57,0,4.17,4.17c.6,4.17-2.38,3.57-7.15,1.79-4.76-1.79,2.98-5.95,2.98-5.95ZM1492.73,336.52c-3.57-.6-6.55-4.76-6.55-4.76-.6-4.17,0-10.72,5.95-8.93,5.95,1.79,5.95,9.53,5.95,9.53,0,0-1.79,4.76-5.36,4.17ZM1489.76,309.13c-2.38-4.17-.6-11.31-.6-11.31l13.1-.6s7.74,2.98,7.74,8.93-8.34,8.93-8.34,8.93c-1.19-1.79-9.53-1.79-11.91-5.95ZM1055.66,882.57c7.15-11.91,11.91-14.29,20.25-13.1,8.34,1.19,15.48,10.72,11.91,14.29s-13.1,8.34-13.1,8.34c0,0-26.2,2.38-19.06-9.53ZM1077.09,964.75c-26.2,5.95-52.4,16.67-78.6,10.72-26.2-5.95-46.45-3.57-48.83-17.86-2.38-14.29,10.72-17.86,10.72-17.86,3.57-3.57,20.25-17.86,40.49-23.82,20.25-5.95,41.68-8.34,53.59-2.38,11.91,5.95,22.63,5.95,26.2,19.06,3.57,13.1,22.63,26.2-3.57,32.16ZM1530.84,762.28c-5.95,14.29,3.57,21.44-14.29,28.58-17.86,7.15-25.01,10.72-35.73,7.15-5.65-1.88-54.78-1.19-54.78-13.1s14.29-25.01,29.77-40.49c15.48-15.48,14.29-34.54,34.54-41.68,20.25-7.15,30.96,9.53,30.96,9.53,0,0,15.48,35.73,9.53,50.02ZM1549.9,643.19c-5.95,8.34-16.67,8.34-16.67,0,0-6.07,2.38-17.86,8.34-14.29s14.29,5.95,8.34,14.29ZM1551.69,434.18c8.34-5.36,17.86-7.74,26.8-1.19,8.93,6.55,16.08,14.29,17.86,22.03,1.79,7.74-1.19,15.48-1.19,15.48-1.79,1.19-23.22,19.06-30.96,18.46-7.74-.6-9.53-25.01-10.72-33.35-1.19-8.34-10.12-16.08-1.79-21.44ZM1595.16,559.82c-10.12,8.93-25.01,32.16-32.16,16.08-7.15-16.08-4.17-23.22-2.38-36.32,1.79-13.1,1.79-16.67,4.17-27.99,2.38-11.31,19.06-21.44,19.06-21.44,0,0,20.25-13.1,24.41-6.55,4.17,6.55-1.19,39.9-1.19,39.9,0,2.98-1.79,27.39-11.91,36.32Z" style="fill: #fff5eb; stroke-width: 0px;"/>
      <path d="M1572.53,365.7s58.36,60.74,69.08,70.27c10.72,9.53,22.63,40.49,21.44,63.12-1.19,22.63,2.38,41.68-15.48,67.88-17.86,26.2-20.25,27.39-32.16,38.11-11.91,10.72-20.25,27.39-20.25,27.39,0,0,40.49-29.77,52.4-42.87,11.91-13.1,30.96-35.73,32.16-63.12s-1.19-48.83-4.76-60.74c-3.57-11.91-13.1-33.35-27.39-45.26-14.29-11.91-63.12-39.3-75.03-54.78Z" style="fill: #fff5eb; stroke-width: 0px;"/>
      <path d="M1627.31,384.75l27.39,19.06s14.29,15.48,25.01,30.96c10.72,15.48,17.86,34.54,17.86,34.54l-2.38,26.2s16.67-8.34,4.76-39.3c-11.91-30.96-33.35-50.02-39.3-55.97-5.95-5.95-33.35-15.48-33.35-15.48Z" style="fill: #fff5eb; stroke-width: 0px;"/>
      <path d="M962.76,1024.29s39.3-3.57,65.5-2.38c26.2,1.19,73.84-3.57,88.13-14.29,14.29-10.72,30.96-32.16,30.96-32.16,0,0-4.76-25.01-4.76-40.49s14.29-34.54,14.29-34.54l15.48-11.91s-20.25,25.01-20.25,38.11,4.76,36.92,3.57,45.26c-1.19,8.34-9.53,21.44-22.63,33.35-13.1,11.91-33.35,17.86-58.36,22.63-25.01,4.76-111.95-3.57-111.95-3.57Z" style="fill: #fff5eb; stroke-width: 0px;"/>
      <path d="M1043.75,1142.2s51.21-50.02,85.75-61.93,69.08-7.15,85.75-21.44c16.67-14.29,32.16-26.2,35.73-42.87,3.57-16.67,0-21.44,15.48-33.35,15.48-11.91,54.78-27.39,54.78-27.39l58.36-16.67,86.94-28.58s-3.57,8.34-20.25,17.86c-16.67,9.53-47.64,25.01-70.27,27.39-22.63,2.38-70.27,10.72-82.18,26.2-11.91,15.48-23.82,33.35-23.82,33.35l-9.53,42.87s-21.44,22.63-42.87,26.2c-21.44,3.57-36.92,2.38-59.55,10.72-22.63,8.34-44.07,0-64.31,16.67-20.25,16.67-50.02,30.96-50.02,30.96Z" style="fill: #fff5eb; stroke-width: 0px;"/>
      <path d="M1609.45,824.21c4.76-5.95,30.96-39.3,30.96-39.3,0,0,11.91-27.39,5.95-45.26-5.95-17.86-4.76-53.59-4.76-53.59l21.44-27.39s-11.91,32.16-11.91,42.87,3.57,22.63,4.76,35.73c1.19,13.1,3.57,32.16-4.76,45.26-8.34,13.1-41.68,41.68-41.68,41.68Z" style="fill: #fff5eb; stroke-width: 0px;"/>
      <path d="M1551.09,162.04s-10.72-28.58-5.95-45.26c4.76-16.67,27.39-55.97,27.39-55.97,0,0,20.25-21.44,34.54-40.49,14.29-19.06,46.45-38.11,46.45-38.11,0,0-14.29,23.82-23.82,32.16-9.53,8.34-21.44,21.44-33.35,35.73-11.91,14.29-28.58,33.35-34.54,47.64-5.95,14.29-5.95,20.25-7.15,34.54-1.19,14.29-3.57,29.77-3.57,29.77Z" style="fill: #fff5eb; stroke-width: 0px;"/>
      <rect x="2.25" y="1.41" width="1930.75" height="1086.05" rx="20.01" ry="20.01" style="fill: none; stroke-width: 0px;"/>
      <rect x="99.23" y="925.69" width="218.6" height="307.46" transform="translate(-454.09 1956.66) rotate(-132)" style="fill: #fafbf5; stroke-width: 0px;"/>
      <rect x="27.83" y="1124.49" width="218.6" height="38.43" transform="translate(-621.05 2010.91) rotate(-132)" style="fill: #ff9777; stroke-width: 0px;"/>
      <rect x="84.95" y="1073.06" width="218.6" height="38.43" transform="translate(-487.49 1967.51) rotate(-132)" style="fill: #ff9777; stroke-width: 0px;"/>
      <rect x="142.07" y="1021.63" width="218.6" height="38.43" transform="translate(-353.92 1924.11) rotate(-132)" style="fill: #ff9777; stroke-width: 0px;"/>
      <rect x="199.19" y="970.19" width="218.6" height="38.43" transform="translate(-220.35 1880.71) rotate(-132)" style="fill: #ff9777; stroke-width: 0px;"/>
      <ellipse cx="147.61" cy="1091.63" rx="155.65" ry="173.88" transform="translate(-552.2 240.92) rotate(-31.74)" style="fill: #72594a; mix-blend-mode: multiply; opacity: .15; stroke-width: 0px;"/>
      <path d="M75.14,1048.08l87.83-135.48s-70.05,8.41-121.52-22.43l33.69,157.9Z" style="fill: #b2e2c3; stroke-width: 0px;"/>
      <path d="M75.14,1048.08l-33.69-157.9s-43.59,55.48-101.79,70.07l135.48,87.83Z" style="fill: #72c7ab; stroke-width: 0px;"/>
      <path d="M75.14,1048.08l-135.48-87.83s8.41,70.05-22.43,121.52l157.9-33.69Z" style="fill: #50bd92; stroke-width: 0px;"/>
      <path d="M75.14,1048.08l-157.9,33.69s55.48,43.59,70.07,101.79l87.83-135.48Z" style="fill: #2cae7e; stroke-width: 0px;"/>
      <path d="M75.14,1048.08l-87.83,135.48s70.05-8.41,121.52,22.43l-33.69-157.9Z" style="fill: #009e62; stroke-width: 0px;"/>
      <path d="M75.14,1048.08l33.69,157.9s43.59-55.48,101.79-70.07l-135.48-87.83Z" style="fill: #2cae7e; stroke-width: 0px;"/>
      <path d="M75.14,1048.08l135.48,87.83s-8.41-70.05,22.43-121.52l-157.9,33.69Z" style="fill: #50bd92; stroke-width: 0px;"/>
      <path d="M75.14,1048.08l157.9-33.69s-55.48-43.59-70.07-101.79l-87.83,135.48Z" style="fill: #72c7ab; stroke-width: 0px;"/>
    </g>
  </g>
</svg>