<?xml version="1.0" encoding="UTF-8"?>
<svg id="katman_1" data-name="katman 1" xmlns="http://www.w3.org/2000/svg" viewBox="0 0 344.5 87.5">
  <defs>
    <style>
      .cls-1 {
        fill: #000;
        stroke-width: 0px;
      }
    </style>
  </defs>
  <path class="cls-1" d="M20.38,71.69l4.85-21.04h.08l11.42,21.53c1.81.74,2.79.82,4.27.82,5.84,0,10.11-3.86,10.11-9.12,0-3.94-2.14-7.31-6.9-9.86l-9.37-5.09c-7.64-4.19-12.16-9.78-12.16-18.08,0-10.27,7.56-18.33,20.96-18.33,6.41,0,12.25.9,18.66,3.62l-4.85,18.16h-.08l-10.85-19.48c-1.64-.41-2.38-.49-4.03-.49-4.19,0-7.81,3.04-7.81,7.56,0,3.62,2.05,6.82,8.14,10.44l10.77,6.49c6.9,4.11,10.85,9.12,10.85,16.6,0,11.34-9.53,19.56-23.26,19.56-6.99,0-14.14-1.07-20.79-3.29Z"/>
  <path class="cls-1" d="M131,72.02h6.57v1.31h-31.23v-1.31h6.57v-29.34h-19.4v29.34h6.57v1.31h-31.23v-1.31h6.57V18.52l-7.31-4.36h32.71l-7.31,4.36v22.68h19.4v-22.68l-7.31-4.36h32.71l-7.31,4.36v53.5Z"/>
  <path class="cls-1" d="M142.42,43.5c0-16.11,10.93-30.98,29.67-30.98s31.39,13.48,31.39,31.48c0,16.11-10.77,30.98-29.59,30.98s-31.48-13.4-31.48-31.48ZM190.74,63.39c0-17.67-18.24-46.27-30-46.27-3.29,0-5.51,2.38-5.51,6.99,0,17.67,18.57,46.27,29.92,46.27,3.62,0,5.59-2.22,5.59-6.99Z"/>
  <path class="cls-1" d="M272.1,72.02v1.31h-23.42l-15.7-27.12v25.81h6.99v1.31h-31.64v-1.31h6.57V18.6l-7.31-4.44h30.98c16.19,0,25.48,4.85,25.48,14.71,0,8.14-4.85,13.15-13.4,15.45l17.51,27.7h3.94ZM232.98,15.48v29.17c10.11-.58,12.16-5.42,12.16-15.61,0-8.3-3.12-13.56-9.53-13.56h-2.63Z"/>
  <path class="cls-1" d="M298.31,15.48v26.3c5.18-.25,10.93-4.6,13.97-10.85h.08v22.93h-.08c-3.12-6.41-8.63-10.68-13.97-10.93v29.09c9.7-.17,18-4.93,25.72-19.23h.08v20.55h-50.46v-1.31h6.57V18.6l-7.31-4.44h51.2v20.55h-.08c-7.73-14.14-16.03-19.15-25.72-19.23Z"/>
</svg>